<?xml version="1.0" encoding="UTF-8" standalone="no"?>
<!DOCTYPE svg PUBLIC "-//W3C//DTD SVG 1.1//EN"
 "http://www.w3.org/Graphics/SVG/1.1/DTD/svg11.dtd">
<!-- Generated by graphviz version 2.38.0 (20140413.2041)
 -->
<!-- Title: windowmanager Pages: 1 -->
<svg width="454pt" height="251pt"
 viewBox="0.00 0.00 453.50 251.28" xmlns="http://www.w3.org/2000/svg" xmlns:xlink="http://www.w3.org/1999/xlink">
<g id="graph0" class="graph" transform="scale(1 1) rotate(0) translate(4 247.276)">
<title>windowmanager</title>
<polygon fill="white" stroke="none" points="-4,4 -4,-247.276 449.5,-247.276 449.5,4 -4,4"/>
<!-- q -->
<g id="node1" class="node"><title>q</title>
<ellipse fill="black" stroke="black" cx="24" cy="-219.776" rx="1.8" ry="1.8"/>
</g>
<!-- inactive -->
<g id="node2" class="node"><title>inactive</title>
<path fill="none" stroke="black" stroke-width="2" d="M73,-196.776C73,-196.776 109,-196.776 109,-196.776 115,-196.776 121,-202.776 121,-208.776 121,-208.776 121,-230.776 121,-230.776 121,-236.776 115,-242.776 109,-242.776 109,-242.776 73,-242.776 73,-242.776 67,-242.776 61,-236.776 61,-230.776 61,-230.776 61,-208.776 61,-208.776 61,-202.776 67,-196.776 73,-196.776"/>
<text text-anchor="middle" x="91" y="-227.576" font-family="Times,serif" font-size="14.00">Inactive</text>
<polyline fill="none" stroke="black" stroke-width="2" points="61,-219.776 121,-219.776 "/>
<text text-anchor="middle" x="91" y="-204.576" font-family="Times,serif" font-size="14.00"> </text>
</g>
<!-- q&#45;&gt;inactive -->
<g id="edge1" class="edge"><title>q&#45;&gt;inactive</title>
<path fill="none" stroke="black" d="M25.832,-219.776C34.157,-219.776 42.482,-219.776 50.807,-219.776"/>
<polygon fill="black" stroke="black" points="50.9617,-223.276 60.9616,-219.776 50.9616,-216.276 50.9617,-223.276"/>
</g>
<!-- activeChild -->
<g id="node5" class="node"><title>activeChild</title>
<path fill="none" stroke="black" stroke-width="2" d="M12,-0.776341C12,-0.776341 42,-0.776341 42,-0.776341 48,-0.776341 54,-6.77634 54,-12.7763 54,-12.7763 54,-34.7763 54,-34.7763 54,-40.7763 48,-46.7763 42,-46.7763 42,-46.7763 12,-46.7763 12,-46.7763 6,-46.7763 0,-40.7763 0,-34.7763 0,-34.7763 0,-12.7763 0,-12.7763 0,-6.77634 6,-0.776341 12,-0.776341"/>
<text text-anchor="middle" x="27" y="-31.5763" font-family="Times,serif" font-size="14.00">Active</text>
<polyline fill="none" stroke="black" stroke-width="2" points="0,-23.7763 54,-23.7763 "/>
<text text-anchor="middle" x="27" y="-8.57634" font-family="Times,serif" font-size="14.00">(child)</text>
</g>
<!-- inactive&#45;&gt;activeChild -->
<g id="edge8" class="edge"><title>inactive&#45;&gt;activeChild</title>
<path fill="none" stroke="black" d="M69.6039,-196.581C57.8172,-182.92 44.1614,-164.406 37,-145.276 26.3098,-116.721 24.5312,-81.7774 24.9931,-56.8875"/>
<polygon fill="black" stroke="black" points="28.4915,-56.9893 25.3088,-46.8838 21.495,-56.7684 28.4915,-56.9893"/>
<text text-anchor="middle" x="117" y="-118.076" font-family="Times,serif" font-size="14.00" fill="gray">ANY_PROGRAM / launch()</text>
</g>
<!-- waiting -->
<g id="node3" class="node"><title>waiting</title>
<path fill="none" stroke="black" stroke-width="2" d="M217.5,-98.7763C217.5,-98.7763 282.5,-98.7763 282.5,-98.7763 288.5,-98.7763 294.5,-104.776 294.5,-110.776 294.5,-110.776 294.5,-132.776 294.5,-132.776 294.5,-138.776 288.5,-144.776 282.5,-144.776 282.5,-144.776 217.5,-144.776 217.5,-144.776 211.5,-144.776 205.5,-138.776 205.5,-132.776 205.5,-132.776 205.5,-110.776 205.5,-110.776 205.5,-104.776 211.5,-98.7763 217.5,-98.7763"/>
<text text-anchor="middle" x="250" y="-129.576" font-family="Times,serif" font-size="14.00">Waiting</text>
<polyline fill="none" stroke="black" stroke-width="2" points="205.5,-121.776 294.5,-121.776 "/>
<text text-anchor="middle" x="250" y="-106.576" font-family="Times,serif" font-size="14.00">emit Ev(end)</text>
</g>
<!-- waiting&#45;&gt;inactive -->
<g id="edge7" class="edge"><title>waiting&#45;&gt;inactive</title>
<path fill="none" stroke="black" d="M213.412,-144.867C188.441,-159.944 155.403,-179.891 129.944,-195.263"/>
<polygon fill="black" stroke="black" points="128.033,-192.329 121.281,-200.494 131.651,-198.321 128.033,-192.329"/>
<text text-anchor="middle" x="202.5" y="-167.076" font-family="Times,serif" font-size="14.00" fill="gray">wait 2 s</text>
</g>
<!-- activeBoth -->
<g id="node4" class="node"><title>activeBoth</title>
<path fill="none" stroke="black" stroke-width="2" d="M181,-0.776341C181,-0.776341 269,-0.776341 269,-0.776341 275,-0.776341 281,-6.77634 281,-12.7763 281,-12.7763 281,-34.7763 281,-34.7763 281,-40.7763 275,-46.7763 269,-46.7763 269,-46.7763 181,-46.7763 181,-46.7763 175,-46.7763 169,-40.7763 169,-34.7763 169,-34.7763 169,-12.7763 169,-12.7763 169,-6.77634 175,-0.776341 181,-0.776341"/>
<text text-anchor="middle" x="225" y="-31.5763" font-family="Times,serif" font-size="14.00">Active</text>
<polyline fill="none" stroke="black" stroke-width="2" points="169,-23.7763 281,-23.7763 "/>
<text text-anchor="middle" x="225" y="-8.57634" font-family="Times,serif" font-size="14.00">(child + window)</text>
</g>
<!-- activeBoth&#45;&gt;activeChild -->
<g id="edge2" class="edge"><title>activeBoth&#45;&gt;activeChild</title>
<path fill="none" stroke="black" d="M168.977,-7.49521C165.451,-6.81799 161.938,-6.23345 158.5,-5.77634 117.087,-0.270584 105.236,3.49404 64.5,-5.77634 64.3944,-5.80038 64.2887,-5.82475 64.183,-5.84946"/>
<polygon fill="black" stroke="black" points="62.8245,-2.60815 54.3454,-8.9608 64.9354,-9.28231 62.8245,-2.60815"/>
<text text-anchor="middle" x="111.5" y="-9.57634" font-family="Times,serif" font-size="14.00" fill="gray">Ev(window_end)</text>
</g>
<!-- activeWindow -->
<g id="node6" class="node"><title>activeWindow</title>
<path fill="none" stroke="black" stroke-width="2" d="M388.5,-0.776341C388.5,-0.776341 433.5,-0.776341 433.5,-0.776341 439.5,-0.776341 445.5,-6.77634 445.5,-12.7763 445.5,-12.7763 445.5,-34.7763 445.5,-34.7763 445.5,-40.7763 439.5,-46.7763 433.5,-46.7763 433.5,-46.7763 388.5,-46.7763 388.5,-46.7763 382.5,-46.7763 376.5,-40.7763 376.5,-34.7763 376.5,-34.7763 376.5,-12.7763 376.5,-12.7763 376.5,-6.77634 382.5,-0.776341 388.5,-0.776341"/>
<text text-anchor="middle" x="411" y="-31.5763" font-family="Times,serif" font-size="14.00">Active</text>
<polyline fill="none" stroke="black" stroke-width="2" points="376.5,-23.7763 445.5,-23.7763 "/>
<text text-anchor="middle" x="411" y="-8.57634" font-family="Times,serif" font-size="14.00">(window)</text>
</g>
<!-- activeBoth&#45;&gt;activeWindow -->
<g id="edge3" class="edge"><title>activeBoth&#45;&gt;activeWindow</title>
<path fill="none" stroke="black" d="M281.058,-23.7763C308.322,-23.7763 340.644,-23.7763 366.231,-23.7763"/>
<polygon fill="black" stroke="black" points="366.392,-27.2764 376.392,-23.7763 366.392,-20.2764 366.392,-27.2764"/>
<text text-anchor="middle" x="328.75" y="-30.5763" font-family="Times,serif" font-size="14.00" fill="gray">Ev(child_end)</text>
</g>
<!-- activeChild&#45;&gt;waiting -->
<g id="edge6" class="edge"><title>activeChild&#45;&gt;waiting</title>
<path fill="none" stroke="black" d="M54.3102,-36.5332C89.4662,-51.6676 151.348,-78.3074 196.128,-97.585"/>
<polygon fill="black" stroke="black" points="194.84,-100.841 205.409,-101.58 197.607,-94.4111 194.84,-100.841"/>
<text text-anchor="middle" x="191" y="-69.0763" font-family="Times,serif" font-size="14.00" fill="gray">Ev(child_end)</text>
</g>
<!-- activeChild&#45;&gt;activeBoth -->
<g id="edge4" class="edge"><title>activeChild&#45;&gt;activeBoth</title>
<path fill="none" stroke="black" d="M54.1159,-23.7763C80.9142,-23.7763 122.959,-23.7763 158.637,-23.7763"/>
<polygon fill="black" stroke="black" points="158.995,-27.2764 168.995,-23.7763 158.995,-20.2764 158.995,-27.2764"/>
<text text-anchor="middle" x="111.5" y="-30.5763" font-family="Times,serif" font-size="14.00" fill="gray">Ev(new_window)</text>
</g>
<!-- activeWindow&#45;&gt;waiting -->
<g id="edge5" class="edge"><title>activeWindow&#45;&gt;waiting</title>
<path fill="none" stroke="black" d="M376.438,-45.3846C352.865,-59.4409 321.391,-78.2078 295.743,-93.5009"/>
<polygon fill="black" stroke="black" points="293.733,-90.6244 286.937,-98.752 297.318,-96.6367 293.733,-90.6244"/>
<text text-anchor="middle" x="387" y="-69.0763" font-family="Times,serif" font-size="14.00" fill="gray">Ev(window_end)</text>
</g>
</g>
</svg>
