<?xml version="1.0" encoding="UTF-8" standalone="no"?>
<!DOCTYPE svg PUBLIC "-//W3C//DTD SVG 1.1//EN"
 "http://www.w3.org/Graphics/SVG/1.1/DTD/svg11.dtd">
<!-- Generated by graphviz version 2.38.0 (20140413.2041)
 -->
<!-- Title: windowmanager Pages: 1 -->
<svg width="1225pt" height="443pt"
 viewBox="0.00 0.00 1224.50 443.00" xmlns="http://www.w3.org/2000/svg" xmlns:xlink="http://www.w3.org/1999/xlink">
<g id="graph0" class="graph" transform="scale(1 1) rotate(0) translate(4 439)">
<title>windowmanager</title>
<polygon fill="white" stroke="none" points="-4,4 -4,-439 1220.5,-439 1220.5,4 -4,4"/>
<!-- header -->
<g id="node1" class="node"><title>header</title>
<polygon fill="none" stroke="black" stroke-width="2" points="879.5,-423 649.5,-423 649.5,-385 885.5,-385 885.5,-417 879.5,-423"/>
<polyline fill="none" stroke="black" stroke-width="2" points="879.5,-423 879.5,-417 "/>
<polyline fill="none" stroke="black" stroke-width="2" points="885.5,-417 879.5,-417 "/>
<text text-anchor="start" x="657.5" y="-407.8" font-family="Times,serif" font-size="14.00">Methods : start(), killChild() </text>
<text text-anchor="middle" x="767.5" y="-392.8" font-family="Times,serif" font-size="14.00"> &#160;Events : window_new/end, child_end &#160;</text>
</g>
<!-- q -->
<g id="node2" class="node"><title>q</title>
<ellipse fill="black" stroke="black" cx="905.5" cy="-404" rx="1.8" ry="1.8"/>
</g>
<!-- inactive -->
<g id="node3" class="node"><title>inactive</title>
<path fill="none" stroke="black" stroke-width="2" d="M955,-373.5C955,-373.5 1080,-373.5 1080,-373.5 1086,-373.5 1092,-379.5 1092,-385.5 1092,-385.5 1092,-422.5 1092,-422.5 1092,-428.5 1086,-434.5 1080,-434.5 1080,-434.5 955,-434.5 955,-434.5 949,-434.5 943,-428.5 943,-422.5 943,-422.5 943,-385.5 943,-385.5 943,-379.5 949,-373.5 955,-373.5"/>
<text text-anchor="middle" x="1017.5" y="-419.3" font-family="Times,serif" font-size="14.00">Inactive</text>
<polyline fill="none" stroke="black" stroke-width="2" points="943,-411.5 1092,-411.5 "/>
<text text-anchor="start" x="951" y="-396.3" font-family="Times,serif" font-size="14.00">&#45; exposed: true</text>
<text text-anchor="middle" x="1017.5" y="-381.3" font-family="Times,serif" font-size="14.00">&#45; (everything): false/null</text>
</g>
<!-- q&#45;&gt;inactive -->
<g id="edge1" class="edge"><title>q&#45;&gt;inactive</title>
<path fill="none" stroke="black" d="M907.688,-404C916.023,-404 924.359,-404 932.694,-404"/>
<polygon fill="black" stroke="black" points="932.862,-407.5 942.862,-404 932.862,-400.5 932.862,-407.5"/>
</g>
<!-- launch -->
<g id="node10" class="node"><title>launch</title>
<path fill="none" stroke="black" stroke-width="2" d="M650.238,-317.857C650.238,-317.857 623.831,-308.143 623.831,-308.143 618.199,-306.071 618.199,-301.929 623.831,-299.857 623.831,-299.857 650.238,-290.143 650.238,-290.143 655.869,-288.071 667.131,-288.071 672.762,-290.143 672.762,-290.143 699.169,-299.857 699.169,-299.857 704.801,-301.929 704.801,-306.071 699.169,-308.143 699.169,-308.143 672.762,-317.857 672.762,-317.857 667.131,-319.929 655.869,-319.929 650.238,-317.857"/>
<text text-anchor="middle" x="661.5" y="-300.3" font-family="Times,serif" font-size="14.00">launch</text>
</g>
<!-- inactive&#45;&gt;launch -->
<g id="edge15" class="edge"><title>inactive&#45;&gt;launch</title>
<path fill="none" stroke="gray" d="M942.832,-380.565C933.968,-377.977 925.039,-375.406 916.5,-373 839.303,-351.247 748.45,-327.448 698.711,-314.573"/>
<polygon fill="gray" stroke="gray" points="699.299,-311.11 688.741,-311.996 697.547,-317.887 699.299,-311.11"/>
<text text-anchor="middle" x="920.5" y="-343.8" font-family="Times,serif" font-size="14.00" fill="gray">ANY_PROGRAM / start()</text>
</g>
<!-- waiting -->
<g id="node4" class="node"><title>waiting</title>
<path fill="none" stroke="black" stroke-width="2" d="M852.5,-0.5C852.5,-0.5 958.5,-0.5 958.5,-0.5 964.5,-0.5 970.5,-6.5 970.5,-12.5 970.5,-12.5 970.5,-79.5 970.5,-79.5 970.5,-85.5 964.5,-91.5 958.5,-91.5 958.5,-91.5 852.5,-91.5 852.5,-91.5 846.5,-91.5 840.5,-85.5 840.5,-79.5 840.5,-79.5 840.5,-12.5 840.5,-12.5 840.5,-6.5 846.5,-0.5 852.5,-0.5"/>
<text text-anchor="middle" x="905.5" y="-76.3" font-family="Times,serif" font-size="14.00">Waiting</text>
<polyline fill="none" stroke="black" stroke-width="2" points="840.5,-68.5 970.5,-68.5 "/>
<text text-anchor="start" x="848.5" y="-53.3" font-family="Times,serif" font-size="14.00">&#45; exposed: false</text>
<text text-anchor="start" x="848.5" y="-38.3" font-family="Times,serif" font-size="14.00">&#45; has_child: false</text>
<text text-anchor="start" x="848.5" y="-23.3" font-family="Times,serif" font-size="14.00">&#45; has_window: false </text>
<text text-anchor="middle" x="905.5" y="-8.3" font-family="Times,serif" font-size="14.00">&#45; dbus_id: null</text>
</g>
<!-- waiting&#45;&gt;inactive -->
<g id="edge14" class="edge"><title>waiting&#45;&gt;inactive</title>
<path fill="none" stroke="black" d="M970.601,-49.7356C1034.89,-56.3212 1130.12,-77.3716 1176.5,-143 1230.96,-220.075 1132.34,-315.968 1067.52,-367.038"/>
<polygon fill="black" stroke="black" points="1065.15,-364.443 1059.4,-373.34 1069.45,-369.972 1065.15,-364.443"/>
<text text-anchor="middle" x="1195" y="-256.8" font-family="Times,serif" font-size="14.00">wait 2 s</text>
</g>
<!-- waiting&#45;&gt;launch -->
<g id="edge16" class="edge"><title>waiting&#45;&gt;launch</title>
<path fill="none" stroke="gray" d="M970.774,-77.6856C982.714,-86.3888 993.574,-97.0966 1000.5,-110 1033.73,-171.917 1042.61,-216.774 994.5,-268 975.696,-288.024 803.124,-297.559 714.102,-301.178"/>
<polygon fill="gray" stroke="gray" points="713.79,-297.688 703.936,-301.58 714.067,-304.682 713.79,-297.688"/>
<text text-anchor="middle" x="1101.5" y="-185.3" font-family="Times,serif" font-size="14.00" fill="gray">ANY_PROGRAM / start()</text>
</g>
<!-- activeBoth -->
<g id="node5" class="node"><title>activeBoth</title>
<path fill="none" stroke="black" stroke-width="2" d="M12,-143.5C12,-143.5 113,-143.5 113,-143.5 119,-143.5 125,-149.5 125,-155.5 125,-155.5 125,-222.5 125,-222.5 125,-228.5 119,-234.5 113,-234.5 113,-234.5 12,-234.5 12,-234.5 6,-234.5 -7.10543e-15,-228.5 -7.10543e-15,-222.5 -7.10543e-15,-222.5 -7.10543e-15,-155.5 -7.10543e-15,-155.5 -7.10543e-15,-149.5 6,-143.5 12,-143.5"/>
<text text-anchor="middle" x="62.5" y="-219.3" font-family="Times,serif" font-size="14.00">Active</text>
<polyline fill="none" stroke="black" stroke-width="2" points="-7.10543e-15,-211.5 125,-211.5 "/>
<text text-anchor="start" x="8" y="-196.3" font-family="Times,serif" font-size="14.00">&#45; exposed: false</text>
<text text-anchor="start" x="8" y="-181.3" font-family="Times,serif" font-size="14.00">&#45; has_child: true</text>
<text text-anchor="start" x="8" y="-166.3" font-family="Times,serif" font-size="14.00">&#45; has_window: true </text>
<text text-anchor="middle" x="62.5" y="-151.3" font-family="Times,serif" font-size="14.00">&#45; dbus_id: null</text>
</g>
<!-- activeChild -->
<g id="node6" class="node"><title>activeChild</title>
<path fill="none" stroke="black" stroke-width="2" d="M248.5,-143.5C248.5,-143.5 354.5,-143.5 354.5,-143.5 360.5,-143.5 366.5,-149.5 366.5,-155.5 366.5,-155.5 366.5,-222.5 366.5,-222.5 366.5,-228.5 360.5,-234.5 354.5,-234.5 354.5,-234.5 248.5,-234.5 248.5,-234.5 242.5,-234.5 236.5,-228.5 236.5,-222.5 236.5,-222.5 236.5,-155.5 236.5,-155.5 236.5,-149.5 242.5,-143.5 248.5,-143.5"/>
<text text-anchor="middle" x="301.5" y="-219.3" font-family="Times,serif" font-size="14.00">Active</text>
<polyline fill="none" stroke="black" stroke-width="2" points="236.5,-211.5 366.5,-211.5 "/>
<text text-anchor="start" x="244.5" y="-196.3" font-family="Times,serif" font-size="14.00">&#45; exposed: false</text>
<text text-anchor="start" x="244.5" y="-181.3" font-family="Times,serif" font-size="14.00">&#45; has_child: true</text>
<text text-anchor="start" x="244.5" y="-166.3" font-family="Times,serif" font-size="14.00">&#45; has_window: false </text>
<text text-anchor="middle" x="301.5" y="-151.3" font-family="Times,serif" font-size="14.00">&#45; dbus_id: null</text>
</g>
<!-- activeBoth&#45;&gt;activeChild -->
<g id="edge2" class="edge"><title>activeBoth&#45;&gt;activeChild</title>
<path fill="none" stroke="black" d="M125.28,-172.244C128.132,-171.766 130.965,-171.346 133.75,-171 172.293,-166.207 184.565,-166.014 226.143,-170.967"/>
<polygon fill="black" stroke="black" points="225.755,-174.445 236.104,-172.179 226.6,-167.496 225.755,-174.445"/>
<text text-anchor="middle" x="180.75" y="-174.8" font-family="Times,serif" font-size="14.00">Ev(window_end)</text>
</g>
<!-- activeWindow -->
<g id="node7" class="node"><title>activeWindow</title>
<path fill="none" stroke="black" stroke-width="2" d="M860,-143.5C860,-143.5 961,-143.5 961,-143.5 967,-143.5 973,-149.5 973,-155.5 973,-155.5 973,-222.5 973,-222.5 973,-228.5 967,-234.5 961,-234.5 961,-234.5 860,-234.5 860,-234.5 854,-234.5 848,-228.5 848,-222.5 848,-222.5 848,-155.5 848,-155.5 848,-149.5 854,-143.5 860,-143.5"/>
<text text-anchor="middle" x="910.5" y="-219.3" font-family="Times,serif" font-size="14.00">Active</text>
<polyline fill="none" stroke="black" stroke-width="2" points="848,-211.5 973,-211.5 "/>
<text text-anchor="start" x="856" y="-196.3" font-family="Times,serif" font-size="14.00">&#45; exposed: false</text>
<text text-anchor="start" x="856" y="-181.3" font-family="Times,serif" font-size="14.00">&#45; has_child: false</text>
<text text-anchor="start" x="856" y="-166.3" font-family="Times,serif" font-size="14.00">&#45; has_window: true </text>
<text text-anchor="middle" x="910.5" y="-151.3" font-family="Times,serif" font-size="14.00">&#45; dbus_id: null</text>
</g>
<!-- activeBoth&#45;&gt;activeWindow -->
<g id="edge3" class="edge"><title>activeBoth&#45;&gt;activeWindow</title>
<path fill="none" stroke="black" d="M125.079,-208.625C155.711,-217.671 193.278,-227.941 227.5,-235 227.5,-235 763.5,-235 763.5,-235 788.317,-230.26 814.839,-222.753 838.427,-215.167"/>
<polygon fill="black" stroke="black" points="839.583,-218.471 847.998,-212.034 837.405,-211.819 839.583,-218.471"/>
<text text-anchor="middle" x="428.5" y="-256.8" font-family="Times,serif" font-size="14.00">Ev(child_end)</text>
</g>
<!-- activeBoth&#45;&gt;launch -->
<g id="edge4" class="edge"><title>activeBoth&#45;&gt;launch</title>
<path fill="none" stroke="gray" d="M57.6656,-234.816C58.7458,-247.156 62.488,-259.476 71.5,-268 109.545,-303.985 462.089,-304.836 603.359,-303.703"/>
<polygon fill="gray" stroke="gray" points="603.591,-307.201 613.56,-303.615 603.53,-300.202 603.591,-307.201"/>
<text text-anchor="middle" x="145.5" y="-256.8" font-family="Times,serif" font-size="14.00" fill="gray">ANY_PROGRAM / start()</text>
</g>
<!-- activeChild&#45;&gt;waiting -->
<g id="edge6" class="edge"><title>activeChild&#45;&gt;waiting</title>
<path fill="none" stroke="black" d="M366.625,-146.691C369.582,-145.36 372.548,-144.121 375.5,-143 530.543,-84.1495 725.123,-60.7657 830.056,-51.952"/>
<polygon fill="black" stroke="black" points="830.554,-55.423 840.235,-51.1192 829.983,-48.4463 830.554,-55.423"/>
<text text-anchor="middle" x="511.5" y="-113.8" font-family="Times,serif" font-size="14.00">Ev(child_end)</text>
</g>
<!-- activeChild&#45;&gt;activeBoth -->
<g id="edge5" class="edge"><title>activeChild&#45;&gt;activeBoth</title>
<path fill="none" stroke="black" d="M236.207,-189C205.038,-189 167.626,-189 135.518,-189"/>
<polygon fill="black" stroke="black" points="135.294,-185.5 125.294,-189 135.294,-192.5 135.294,-185.5"/>
<text text-anchor="middle" x="180.75" y="-195.8" font-family="Times,serif" font-size="14.00">Ev(window_new)</text>
</g>
<!-- activeChild&#45;&gt;launch -->
<g id="edge7" class="edge"><title>activeChild&#45;&gt;launch</title>
<path fill="none" stroke="gray" d="M366.642,-231.264C369.595,-232.607 372.555,-233.862 375.5,-235 414.77,-250.176 430.228,-235.46 468.5,-253 478.281,-257.482 477.736,-263.482 487.5,-268 527.078,-286.314 576.076,-295.076 611.982,-299.25"/>
<polygon fill="gray" stroke="gray" points="611.893,-302.76 622.211,-300.356 612.646,-295.801 611.893,-302.76"/>
<text text-anchor="middle" x="561.5" y="-256.8" font-family="Times,serif" font-size="14.00" fill="gray">ANY_PROGRAM / start()</text>
</g>
<!-- activeWindow&#45;&gt;waiting -->
<g id="edge12" class="edge"><title>activeWindow&#45;&gt;waiting</title>
<path fill="none" stroke="black" d="M907.38,-143.273C907.034,-137.136 906.726,-130.914 906.5,-125 906.213,-117.472 906.003,-109.533 905.851,-101.717"/>
<polygon fill="black" stroke="black" points="909.348,-101.498 905.683,-91.5577 902.349,-101.614 909.348,-101.498"/>
<text text-anchor="middle" x="953.5" y="-113.8" font-family="Times,serif" font-size="14.00">Ev(window_end)</text>
</g>
<!-- activeWindow&#45;&gt;launch -->
<g id="edge13" class="edge"><title>activeWindow&#45;&gt;launch</title>
<path fill="none" stroke="gray" d="M867.946,-234.509C853.904,-246.989 837.499,-259.463 820.5,-268 785.742,-285.455 742.409,-294.257 709.764,-298.666"/>
<polygon fill="gray" stroke="gray" points="709.05,-295.228 699.565,-299.949 709.923,-302.174 709.05,-295.228"/>
<text text-anchor="middle" x="916.5" y="-256.8" font-family="Times,serif" font-size="14.00" fill="gray">ANY_PROGRAM / start()</text>
</g>
<!-- activeDbus -->
<g id="node8" class="node"><title>activeDbus</title>
<path fill="none" stroke="black" stroke-width="2" d="M396.5,-143.5C396.5,-143.5 502.5,-143.5 502.5,-143.5 508.5,-143.5 514.5,-149.5 514.5,-155.5 514.5,-155.5 514.5,-222.5 514.5,-222.5 514.5,-228.5 508.5,-234.5 502.5,-234.5 502.5,-234.5 396.5,-234.5 396.5,-234.5 390.5,-234.5 384.5,-228.5 384.5,-222.5 384.5,-222.5 384.5,-155.5 384.5,-155.5 384.5,-149.5 390.5,-143.5 396.5,-143.5"/>
<text text-anchor="middle" x="449.5" y="-219.3" font-family="Times,serif" font-size="14.00">Active</text>
<polyline fill="none" stroke="black" stroke-width="2" points="384.5,-211.5 514.5,-211.5 "/>
<text text-anchor="start" x="392.5" y="-196.3" font-family="Times,serif" font-size="14.00">&#45; exposed: false</text>
<text text-anchor="start" x="392.5" y="-181.3" font-family="Times,serif" font-size="14.00">&#45; has_child: false</text>
<text text-anchor="start" x="392.5" y="-166.3" font-family="Times,serif" font-size="14.00">&#45; has_window: false </text>
<text text-anchor="middle" x="449.5" y="-151.3" font-family="Times,serif" font-size="14.00">&#45; dbus_id: ANY_ID</text>
</g>
<!-- activeDbus&#45;&gt;waiting -->
<g id="edge9" class="edge"><title>activeDbus&#45;&gt;waiting</title>
<path fill="none" stroke="black" d="M514.834,-167.798C598.387,-141.963 742.754,-97.3229 830.647,-70.1453"/>
<polygon fill="black" stroke="black" points="831.768,-73.4624 840.288,-67.1644 829.7,-66.7748 831.768,-73.4624"/>
<text text-anchor="middle" x="728.5" y="-113.8" font-family="Times,serif" font-size="14.00">Ev(dbus_end)</text>
</g>
<!-- activeDbusWin -->
<g id="node9" class="node"><title>activeDbusWin</title>
<path fill="none" stroke="black" stroke-width="2" d="M641,-143.5C641,-143.5 742,-143.5 742,-143.5 748,-143.5 754,-149.5 754,-155.5 754,-155.5 754,-222.5 754,-222.5 754,-228.5 748,-234.5 742,-234.5 742,-234.5 641,-234.5 641,-234.5 635,-234.5 629,-228.5 629,-222.5 629,-222.5 629,-155.5 629,-155.5 629,-149.5 635,-143.5 641,-143.5"/>
<text text-anchor="middle" x="691.5" y="-219.3" font-family="Times,serif" font-size="14.00">Active</text>
<polyline fill="none" stroke="black" stroke-width="2" points="629,-211.5 754,-211.5 "/>
<text text-anchor="start" x="637" y="-196.3" font-family="Times,serif" font-size="14.00">&#45; exposed: false</text>
<text text-anchor="start" x="637" y="-181.3" font-family="Times,serif" font-size="14.00">&#45; has_child: false</text>
<text text-anchor="start" x="637" y="-166.3" font-family="Times,serif" font-size="14.00">&#45; has_window: true </text>
<text text-anchor="middle" x="691.5" y="-151.3" font-family="Times,serif" font-size="14.00">&#45; dbus_id: ANY_ID</text>
</g>
<!-- activeDbus&#45;&gt;activeDbusWin -->
<g id="edge8" class="edge"><title>activeDbus&#45;&gt;activeDbusWin</title>
<path fill="none" stroke="black" d="M514.67,-189C546.768,-189 585.579,-189 618.654,-189"/>
<polygon fill="black" stroke="black" points="618.721,-192.5 628.721,-189 618.721,-185.5 618.721,-192.5"/>
<text text-anchor="middle" x="571.75" y="-195.8" font-family="Times,serif" font-size="14.00">Ev(window_new)</text>
</g>
<!-- activeDbusWin&#45;&gt;activeWindow -->
<g id="edge11" class="edge"><title>activeDbusWin&#45;&gt;activeWindow</title>
<path fill="none" stroke="black" d="M754.257,-189C780.258,-189 810.589,-189 837.572,-189"/>
<polygon fill="black" stroke="black" points="837.734,-192.5 847.734,-189 837.734,-185.5 837.734,-192.5"/>
<text text-anchor="middle" x="801" y="-195.8" font-family="Times,serif" font-size="14.00">Ev(dbus_end)</text>
</g>
<!-- activeDbusWin&#45;&gt;activeDbus -->
<g id="edge10" class="edge"><title>activeDbusWin&#45;&gt;activeDbus</title>
<path fill="none" stroke="black" d="M628.981,-172.51C625.534,-171.921 622.108,-171.409 618.75,-171 577.279,-165.946 566.24,-166.107 524.75,-171 524.646,-171.012 524.541,-171.025 524.437,-171.037"/>
<polygon fill="black" stroke="black" points="523.996,-167.565 514.591,-172.442 524.985,-174.494 523.996,-167.565"/>
<text text-anchor="middle" x="571.75" y="-174.8" font-family="Times,serif" font-size="14.00">Ev(window_end)</text>
</g>
<!-- launch&#45;&gt;activeChild -->
<g id="edge17" class="edge"><title>launch&#45;&gt;activeChild</title>
<path fill="none" stroke="blue" d="M615.881,-302.71C510.319,-301.564 256.232,-295.906 230.5,-268 221.869,-258.64 223.164,-248.61 229.63,-238.965"/>
<polygon fill="blue" stroke="blue" points="232.544,-240.931 236.173,-230.977 227.129,-236.495 232.544,-240.931"/>
<text text-anchor="middle" x="308" y="-256.8" font-family="Times,serif" font-size="14.00" fill="blue">EXEC_PROGRAM / exec()</text>
</g>
<!-- launch&#45;&gt;activeDbus -->
<g id="edge18" class="edge"><title>launch&#45;&gt;activeDbus</title>
<path fill="none" stroke="blue" d="M658.092,-287.009C654.979,-276.051 649.321,-261.935 639.5,-253 607.999,-224.339 563.117,-208.681 524.884,-200.145"/>
<polygon fill="blue" stroke="blue" points="525.315,-196.659 514.808,-198.023 523.872,-203.509 525.315,-196.659"/>
<text text-anchor="middle" x="733" y="-256.8" font-family="Times,serif" font-size="14.00" fill="blue">EXEC_DBUS / dbus_launch()</text>
</g>
</g>
</svg>
